<svg width="138" height="138" viewBox="0 0 138 138" fill="none" xmlns="http://www.w3.org/2000/svg">
<rect width="138" height="138" rx="69" fill="white"/>
<path d="M58.872 48.44H62.808V52.712V70.568C62.808 72.92 62.664 74.648 62.472 75.896C62.328 77.096 61.752 78.248 60.888 79.4C60.072 80.552 58.968 81.464 57.576 82.088C56.184 82.712 54.552 83 52.728 83C50.952 83 50.184 82.616 49.128 82.04L50.136 81.32C51.864 82.088 52.632 82.088 52.632 82.088C54.168 82.088 55.464 81.56 56.52 80.6C57.576 79.64 58.248 78.488 58.44 77.144C58.68 75.848 58.872 73.64 58.872 70.568V52.712V48.44ZM77.7004 81.8H82.2124H92.8204V83H72.7564V74.12V71.72V69.656V56.984V48.44H92.9164V49.592H82.3084H77.7004V57.032V58.04V64.232H81.2044H87.6844V65.432H81.3484H77.7004V69.656V70.424V71.72V74.12V81.8Z" fill="black"/>
<circle cx="70" cy="65" r="39.5" stroke="black"/>
<path d="M23.0871 75.5331L22.9454 75.5615L22.4908 73.338L22.6325 73.3096L22.6708 73.4971C22.7141 73.7089 22.8082 73.8507 22.9532 73.9226C23.0474 73.9675 23.2503 73.9587 23.5618 73.8963L26.1012 73.3875C26.4918 73.3092 26.8173 73.2892 27.0776 73.3273C27.3374 73.3629 27.5794 73.4672 27.8034 73.6401C28.0249 73.8135 28.166 74.0481 28.2265 74.3441C28.2755 74.5839 28.2554 74.7845 28.1661 74.9458C28.0743 75.1076 27.9517 75.2039 27.7985 75.2346C27.6734 75.2597 27.5724 75.2467 27.4955 75.1957C27.3992 75.1274 27.3395 75.0371 27.3165 74.9248C27.2999 74.8432 27.3118 74.7651 27.3524 74.6905C27.3924 74.6135 27.5185 74.5019 27.7305 74.3558C27.8564 74.2695 27.9099 74.1804 27.8912 74.0886C27.8771 74.0197 27.8219 73.9644 27.7256 73.9226C27.6289 73.8782 27.4732 73.8775 27.2587 73.9205L23.712 74.6311C23.449 74.6838 23.2788 74.7351 23.2013 74.7852C23.1427 74.8235 23.0987 74.8881 23.0695 74.9789C23.0306 75.1009 23.0237 75.2231 23.0487 75.3456L23.0871 75.5331Z" fill="black"/>
<path d="M26.5321 63.8092C26.8079 64.1824 26.967 64.4164 27.0092 64.5111C27.0713 64.6531 27.1006 64.8035 27.0971 64.9623C27.0918 65.2097 27.0028 65.4122 26.83 65.57C26.6574 65.7251 26.433 65.7997 26.1571 65.7938C25.9826 65.79 25.8325 65.7477 25.7066 65.6668C25.5318 65.5562 25.3692 65.3678 25.2187 65.1014C25.0682 64.8325 24.8877 64.3884 24.677 63.7691L24.5365 63.7661C24.1798 63.7583 23.9338 63.8103 23.7985 63.922C23.6633 64.0311 23.5934 64.1937 23.5887 64.4098C23.5852 64.5738 23.6266 64.7049 23.7131 64.8032C23.7994 64.904 23.8999 64.9557 24.0145 64.9582L24.2412 64.9553C24.3609 64.9579 24.4527 64.9911 24.5164 65.055C24.5802 65.1163 24.611 65.1964 24.6089 65.2953C24.6068 65.3917 24.5712 65.4703 24.5022 65.5314C24.4332 65.5898 24.3401 65.6177 24.223 65.6152C23.9991 65.6103 23.7959 65.4913 23.6134 65.2582C23.4309 65.025 23.3441 64.7014 23.353 64.2875C23.3599 63.9698 23.4189 63.7106 23.53 63.5099C23.6141 63.358 23.7428 63.2475 23.9162 63.1783C24.0292 63.1339 24.2588 63.1154 24.6051 63.1229L25.8196 63.1491C26.1607 63.1565 26.3704 63.1545 26.4488 63.1432C26.5246 63.1318 26.5758 63.1121 26.6025 63.084C26.6292 63.0533 26.643 63.0184 26.6438 62.9794C26.6447 62.9377 26.6364 62.9011 26.6188 62.8695C26.5862 62.814 26.4934 62.7065 26.3406 62.547L26.5593 62.5517C26.9435 62.8517 27.1327 63.1345 27.127 63.4001C27.1242 63.5277 27.0778 63.6282 26.9876 63.7018C26.8975 63.7754 26.7456 63.8112 26.5321 63.8092ZM26.2782 63.8037L24.9153 63.7743C25.063 64.1708 25.1682 64.427 25.2308 64.543C25.3409 64.7511 25.4575 64.9008 25.5805 64.992C25.7036 65.0833 25.8393 65.1305 25.9877 65.1337C26.1752 65.1377 26.3326 65.0851 26.46 64.9759C26.5848 64.8666 26.6487 64.739 26.6519 64.5932C26.6562 64.3954 26.5316 64.1322 26.2782 63.8037Z" fill="black"/>
<path d="M24.3147 55.9347L24.7198 54.3166L24.8601 54.3511L24.8402 54.4306C24.8118 54.5443 24.8156 54.6364 24.8516 54.7069C24.8857 54.7743 24.9395 54.817 25.0128 54.835C25.1115 54.8592 25.2585 54.851 25.4539 54.8104L27.4181 54.3954L25.6929 53.1477C25.6 53.0793 25.5029 53.0327 25.4018 53.0079C25.3563 52.9967 25.3199 52.9971 25.2927 53.0092C25.2598 53.0226 25.2304 53.0489 25.2045 53.0882C25.176 53.1268 25.1482 53.2004 25.121 53.309L24.9807 53.2746L25.2634 52.1454L25.4037 52.1798C25.3904 52.2757 25.3926 52.3527 25.4104 52.4107C25.4281 52.4686 25.471 52.5382 25.5393 52.6193C25.569 52.6507 25.6557 52.7175 25.7992 52.8198L28.9128 55.0838C29.2151 55.3028 29.4244 55.5445 29.5407 55.809C29.6576 56.0709 29.6905 56.3042 29.6393 56.5089C29.602 56.6579 29.5283 56.7699 29.4183 56.8448C29.3083 56.9197 29.1976 56.9435 29.0863 56.9162C28.9801 56.8901 28.9026 56.8349 28.854 56.7506C28.8084 56.6643 28.8008 56.5606 28.8312 56.4393C28.8521 56.356 28.9084 56.2491 29 56.1188C29.0633 56.027 29.0981 55.9685 29.1044 55.9433C29.1234 55.8675 29.1047 55.7758 29.0484 55.6681C28.9928 55.5579 28.8638 55.4298 28.6615 55.2836L28.1199 54.8893L25.1864 55.4929C25.0985 55.5116 24.9859 55.5483 24.8487 55.6031C24.7444 55.6446 24.672 55.6818 24.6315 55.7147C24.5765 55.7629 24.5177 55.8477 24.4551 55.9691L24.3147 55.9347Z" fill="black"/>
<path d="M26.2118 44.3339L29.4002 45.9143L29.0691 44.7344C28.9974 44.4837 28.9476 44.3341 28.9197 44.2854C28.9011 44.2529 28.8778 44.2297 28.8498 44.2159C28.8031 44.1927 28.7535 44.1928 28.7008 44.2161C28.647 44.236 28.5955 44.2889 28.5461 44.3749L28.4341 44.3194L29.1359 42.9321L29.2479 42.9876C29.1562 43.1804 29.1048 43.3541 29.0938 43.5085C29.084 43.6606 29.1097 43.8463 29.171 44.0655L29.5161 45.2611L30.9699 44.9572C31.3721 44.8718 31.6317 44.8086 31.7487 44.7678C31.9147 44.7106 32.0353 44.6483 32.1103 44.5808C32.163 44.5343 32.2258 44.439 32.2987 44.2949L32.4247 44.3573L31.64 45.9085L31.514 45.846C31.5564 45.7565 31.5735 45.6909 31.5655 45.6492C31.5562 45.6039 31.5295 45.5703 31.4851 45.5483C31.4315 45.5217 31.3216 45.5254 31.1556 45.5594L29.4037 45.916L30.4677 46.4434C30.6753 46.5464 30.8189 46.6001 30.8983 46.6046C30.9789 46.6067 31.0467 46.588 31.1018 46.5485C31.1568 46.5089 31.2308 46.4002 31.3236 46.2225L31.4496 46.2849L30.6279 47.9092L30.5019 47.8468C30.5842 47.6841 30.6261 47.5523 30.6276 47.4513C30.6266 47.3898 30.6057 47.3329 30.565 47.2808C30.5056 47.2077 30.3815 47.1244 30.1925 47.0307L27.2736 45.5839C26.9026 45.4 26.6721 45.2959 26.5822 45.2717C26.49 45.2463 26.4193 45.2447 26.3702 45.2669C26.3187 45.2879 26.2777 45.3286 26.2471 45.389C26.2225 45.4378 26.2053 45.5208 26.1956 45.6381L26.0431 45.6366L26.1307 44.4942L26.2118 44.3339Z" fill="black"/>
<path d="M34.1255 37.8778C34.5368 38.2141 34.9427 38.3769 35.3434 38.3662C35.744 38.3556 36.0563 38.2147 36.2802 37.9437C36.4295 37.763 36.5093 37.5663 36.5196 37.3535C36.5295 37.137 36.4504 36.8853 36.2822 36.5983L36.42 36.5542C36.6625 36.8208 36.8143 37.1481 36.8755 37.536C36.9346 37.9223 36.8381 38.2681 36.586 38.5732C36.3123 38.9045 35.9481 39.0837 35.4933 39.1108C35.0381 39.1343 34.5909 38.9683 34.1517 38.6127C33.6761 38.2276 33.4052 37.8073 33.3391 37.3517C33.2727 36.8925 33.3904 36.4802 33.6923 36.1148C33.9477 35.8056 34.2608 35.6352 34.6314 35.6036C35.0001 35.5704 35.3564 35.693 35.7005 35.9716L34.1255 37.8778ZM33.9495 37.7352L35.0044 36.4584C34.818 36.3243 34.6751 36.2437 34.5757 36.2169C34.4209 36.1753 34.2696 36.1785 34.1219 36.2264C33.9759 36.2724 33.8581 36.3495 33.7685 36.4579C33.6308 36.6246 33.573 36.8274 33.5951 37.0664C33.6168 37.3018 33.7349 37.5247 33.9495 37.7352Z" fill="black"/>
<path d="M40.9658 29.9352C41.0236 29.5733 41.06 29.3629 41.075 29.3041C41.1118 29.1559 41.169 29.0203 41.2468 28.8972C41.3245 28.7742 41.4173 28.674 41.5252 28.5966C41.7072 28.466 41.9023 28.4062 42.1104 28.4172C42.3185 28.4282 42.5178 28.5175 42.7084 28.6853C42.7418 28.2768 42.8051 27.9798 42.8984 27.7942C42.9902 27.6066 43.1155 27.4559 43.2742 27.3421C43.4287 27.2313 43.5944 27.1733 43.7713 27.1681C43.9489 27.1594 44.1379 27.2192 44.3385 27.3478C44.4743 27.4363 44.6375 27.6108 44.8282 27.8713L45.7373 29.1132C45.8696 29.294 45.9741 29.4081 46.0508 29.4556C46.1058 29.4866 46.1742 29.4985 46.256 29.4911C46.3362 29.4817 46.4408 29.4306 46.5699 29.338L46.653 29.4515L45.2182 30.4806L45.1352 30.3671L45.1955 30.3239C45.3203 30.2343 45.4 30.1403 45.4344 30.0419C45.4585 29.9734 45.4542 29.8948 45.4215 29.806C45.4038 29.7642 45.3335 29.6593 45.2104 29.4912L44.3013 28.2493C44.1291 28.0139 43.979 27.8684 43.8511 27.8127C43.6701 27.7375 43.4886 27.7651 43.3067 27.8956C43.1945 27.9761 43.1021 28.0856 43.0293 28.2243C42.9572 28.3594 42.896 28.5603 42.846 28.8269L42.865 28.8662L42.9706 28.9971L43.9788 30.3746C44.1234 30.5721 44.224 30.6874 44.2805 30.7206C44.3392 30.7522 44.4115 30.7628 44.4975 30.7524C44.5819 30.74 44.6982 30.6806 44.8463 30.5743L44.9294 30.6878L43.4598 31.7419L43.3767 31.6285C43.5375 31.5131 43.6337 31.4153 43.6653 31.335C43.699 31.2531 43.6998 31.166 43.6677 31.0737C43.6521 31.0304 43.5812 30.9225 43.4551 30.7502L42.546 29.5083C42.3738 29.273 42.215 29.1289 42.0698 29.076C41.8783 29.0083 41.6989 29.0344 41.5317 29.1543C41.4175 29.2363 41.3266 29.3479 41.259 29.4893C41.1511 29.7078 41.0918 29.9089 41.0812 30.0928L42.214 31.6405C42.3525 31.8296 42.4551 31.9434 42.5221 31.9819C42.5911 32.0189 42.6618 32.0339 42.7341 32.0269C42.807 32.0163 42.9228 31.954 43.0815 31.8402L43.1646 31.9537L41.7267 32.9851L41.6436 32.8716C41.7769 32.776 41.8601 32.6955 41.893 32.6303C41.9243 32.5629 41.9315 32.4889 41.9144 32.4082C41.8957 32.3254 41.821 32.1947 41.6903 32.0161L40.8827 30.9129C40.6505 30.5956 40.491 30.3976 40.4043 30.3188C40.3387 30.26 40.2808 30.2295 40.2306 30.227C40.1789 30.2225 40.1255 30.2399 40.0705 30.2794C40.0112 30.3219 39.9519 30.3885 39.8924 30.4792L39.7617 30.3999L40.3794 29.4185L40.5159 29.3206L40.9658 29.9352Z" fill="black"/>
<path d="M52.0368 21.2289L52.7742 23.1885L53.8664 22.7858C54.1498 22.6813 54.3231 22.5689 54.3863 22.4484C54.4712 22.2894 54.4678 22.0659 54.376 21.7778L54.5116 21.7278L55.161 23.4534L55.0253 23.5034C54.9003 23.2747 54.8079 23.1326 54.748 23.0769C54.6719 23.0078 54.5746 22.9674 54.4561 22.9556C54.3376 22.9438 54.1745 22.9761 53.9668 23.0527L52.8746 23.4554L53.4895 25.0897C53.5721 25.309 53.6323 25.4395 53.6702 25.481C53.7072 25.5201 53.7556 25.5453 53.8155 25.5565C53.8744 25.5653 53.9723 25.5445 54.1091 25.494L54.9521 25.1832C55.2331 25.0796 55.4298 24.9849 55.5422 24.899C55.6545 24.8132 55.7478 24.6914 55.822 24.5336C55.9166 24.3266 55.986 24.0415 56.0302 23.6783L56.1768 23.6242L56.2157 25.0254L52.3857 26.4375L52.3348 26.3023L52.5108 26.2374C52.628 26.1942 52.7287 26.1251 52.8126 26.0303C52.8762 25.9625 52.9067 25.8846 52.9042 25.7967C52.9042 25.7079 52.8588 25.5429 52.768 25.3016L51.556 22.0807C51.4377 21.7662 51.333 21.5842 51.242 21.5345C51.1173 21.4694 50.9524 21.4747 50.7471 21.5504L50.5712 21.6153L50.5203 21.48L54.3503 20.0678L54.8139 21.1334L54.6709 21.1861C54.5215 20.9442 54.3967 20.7863 54.2964 20.7122C54.1987 20.6372 54.0791 20.5967 53.9376 20.5905C53.8262 20.59 53.647 20.6352 53.4002 20.7262L52.0368 21.2289Z" fill="black"/>
<path d="M63.1314 20.4644C63.4849 19.9122 63.8504 19.613 64.2278 19.5668C64.4217 19.5431 64.5945 19.5718 64.7464 19.6529C64.8979 19.7315 65.0289 19.8768 65.1394 20.0889C65.2156 20.237 65.2737 20.4712 65.3137 20.7917L65.5029 22.3073C65.531 22.5321 65.5681 22.6823 65.6143 22.758C65.6508 22.8191 65.7023 22.864 65.7689 22.8926C65.838 22.9208 65.9579 22.9246 66.1285 22.9037L66.1459 23.0432L64.3894 23.2581L64.372 23.1185L64.4457 23.1095C64.6111 23.0893 64.7231 23.0507 64.7816 22.9937C64.8423 22.9338 64.8795 22.8531 64.8931 22.7518C64.8986 22.7117 64.8886 22.5897 64.8631 22.3855L64.6817 20.932C64.6414 20.6089 64.5695 20.3803 64.4661 20.246C64.365 20.1088 64.215 20.0524 64.0159 20.0768C63.7083 20.1144 63.423 20.3198 63.1599 20.6931L63.3936 22.5653C63.4236 22.8056 63.4564 22.9524 63.4919 23.0058C63.5375 23.0763 63.5935 23.1259 63.6601 23.1545C63.7289 23.1802 63.8602 23.1811 64.0541 23.1574L64.0715 23.297L62.3151 23.5118L62.2976 23.3723L62.3752 23.3628C62.5561 23.3407 62.672 23.2806 62.7227 23.1826C62.7757 23.0816 62.7861 22.9019 62.7539 22.6435L62.5893 21.3256C62.5361 20.8993 62.4933 20.6408 62.4611 20.5503C62.4313 20.4595 62.3937 20.3998 62.3482 20.3713C62.3052 20.3425 62.2501 20.3321 62.1829 20.3404C62.1105 20.3492 62.0264 20.3792 61.9304 20.4303L61.8548 20.2979L62.8708 19.7328L63.0375 19.7124L63.1314 20.4644Z" fill="black"/>
<path d="M73.2676 18.3473L73.1655 19.5186L73.9984 19.5898L73.9747 19.8622L73.1417 19.7911L72.9403 22.1026C72.9201 22.3335 72.939 22.4919 72.9969 22.5779C73.0573 22.6641 73.1394 22.7116 73.2432 22.7205C73.3289 22.7278 73.4142 22.7089 73.4991 22.6639C73.5843 22.6163 73.6535 22.5425 73.7066 22.4425L73.8584 22.4554C73.7454 22.7019 73.6003 22.8829 73.4229 22.9985C73.2458 23.1114 73.069 23.1604 72.8925 23.1453C72.7732 23.1351 72.6592 23.0927 72.5507 23.0181C72.4424 22.9409 72.3664 22.839 72.3225 22.7124C72.2789 22.5832 72.2682 22.3902 72.2906 22.1334L72.4996 19.7362L71.9352 19.688L71.9464 19.5596C72.0941 19.5147 72.2477 19.4311 72.4074 19.3088C72.5699 19.1842 72.7176 19.0335 72.8507 18.8566C72.919 18.7632 73.0177 18.5899 73.1469 18.337L73.2676 18.3473Z" fill="black"/>
<path d="M81.2858 22.268C81.1274 22.7751 81.1285 23.2105 81.2892 23.5743C81.4499 23.9382 81.6986 24.1707 82.0352 24.272C82.2597 24.3395 82.4729 24.3371 82.675 24.2646C82.8803 24.1904 83.0849 24.0208 83.2888 23.7558L83.3819 23.8654C83.2248 24.1907 82.9771 24.4561 82.6389 24.6617C82.3014 24.8647 81.9431 24.9092 81.5641 24.7951C81.1526 24.6713 80.8487 24.4058 80.6522 23.9986C80.4591 23.5897 80.4454 23.1151 80.6113 22.5749C80.7909 21.9899 81.0805 21.5794 81.4798 21.3433C81.8825 21.1055 82.3107 21.0548 82.7646 21.1914C83.1486 21.3069 83.4251 21.5288 83.594 21.857C83.7637 22.1828 83.7836 22.5572 83.6536 22.9804L81.2858 22.268ZM81.3523 22.0514L82.9383 22.5286C82.9931 22.3058 83.0143 22.1436 83.0019 22.0419C82.9824 21.8838 82.9225 21.7461 82.8223 21.6289C82.7246 21.5125 82.6084 21.434 82.4737 21.3935C82.2667 21.3312 82.0561 21.3562 81.8418 21.4685C81.6308 21.5791 81.4676 21.7734 81.3523 22.0514Z" fill="black"/>
<path d="M91.5336 24.8073L91.1419 25.5102C91.6659 25.1851 92.0662 25.0981 92.3427 25.2491C92.4684 25.3177 92.5509 25.4132 92.5901 25.5355C92.6305 25.6555 92.6228 25.7655 92.5671 25.8656C92.5176 25.9543 92.4461 26.0132 92.3524 26.0421C92.2588 26.0711 92.1708 26.0631 92.0885 26.0182C92.0085 25.9745 91.9398 25.8865 91.8823 25.7543C91.8284 25.621 91.7775 25.5412 91.7295 25.515C91.6883 25.4926 91.6311 25.491 91.5577 25.5103C91.4029 25.5474 91.2111 25.6429 90.9822 25.7968L90.1474 27.2948C90.0511 27.4676 89.9999 27.6103 89.9939 27.7227C89.9894 27.8004 90.0134 27.8803 90.066 27.9624C90.1186 28.0445 90.2158 28.1243 90.3575 28.2017L90.2891 28.3245L88.6811 27.4465L88.7496 27.3236C88.9096 27.411 89.0424 27.4509 89.148 27.4433C89.2254 27.4381 89.2977 27.4019 89.3649 27.3348C89.3979 27.3023 89.4651 27.1951 89.5665 27.0131L90.2416 25.8018C90.4444 25.4379 90.5568 25.2174 90.5789 25.1404C90.6044 25.0624 90.6055 24.9962 90.5821 24.9419C90.561 24.8889 90.5208 24.8461 90.4613 24.8136C90.3905 24.775 90.301 24.7483 90.1928 24.7338L90.227 24.5922L91.3896 24.7286L91.5336 24.8073Z" fill="black"/>
<path d="M97.776 29.3602L98.9057 29.7413L99.0185 29.8378L98.4684 30.4673C98.8162 30.3503 99.1015 30.3048 99.3242 30.331C99.5505 30.3568 99.7419 30.4367 99.8981 30.5705C100.171 30.8042 100.306 31.1049 100.303 31.4725C100.3 31.9227 100.117 32.3557 99.7541 32.7714C99.348 33.2362 98.8777 33.5054 98.3431 33.579C97.9039 33.6384 97.5162 33.5241 97.1799 33.2361C97.0335 33.1108 96.9249 32.9818 96.8541 32.8492C96.8006 32.752 96.763 32.617 96.7412 32.444L96.0241 33.2647C95.863 33.449 95.772 33.575 95.7509 33.6427C95.7301 33.714 95.7345 33.7881 95.7642 33.8649C95.7959 33.9435 95.8859 34.0462 96.0342 34.1733L95.9391 34.2821L94.5149 33.0626L94.61 32.9538L94.6842 33.0173C94.7912 33.1124 94.9022 33.1714 95.0171 33.1943C95.0735 33.205 95.133 33.1942 95.1956 33.1621C95.2585 33.1337 95.3756 33.0214 95.547 32.8253L97.7728 30.278C97.9253 30.1034 98.0142 29.9859 98.0395 29.9252C98.0648 29.8646 98.07 29.8073 98.0549 29.7533C98.0418 29.701 98.0056 29.6494 97.9463 29.5986C97.8988 29.5579 97.8265 29.52 97.7293 29.4848L97.776 29.3602ZM98.3168 30.6409L97.4378 31.6469C97.2476 31.8645 97.1314 32.0153 97.0892 32.0992C97.0175 32.2367 96.9974 32.3942 97.0288 32.572C97.0622 32.7514 97.161 32.9114 97.3252 33.052C97.523 33.2214 97.7501 33.2821 98.0064 33.2342C98.3414 33.1713 98.6674 32.9585 98.9844 32.5957C99.3442 32.1839 99.5299 31.7893 99.5416 31.4119C99.5486 31.1505 99.4651 30.9453 99.291 30.7963C99.1961 30.715 99.0816 30.6581 98.9475 30.6255C98.8454 30.5998 98.6352 30.605 98.3168 30.6409Z" fill="black"/>
<path d="M106.101 37.1118L105.457 37.5948C106.068 37.5106 106.47 37.5936 106.661 37.8437C106.748 37.9574 106.785 38.0781 106.771 38.2057C106.759 38.3317 106.708 38.4291 106.616 38.4978C106.535 38.5588 106.446 38.5835 106.348 38.572C106.251 38.5604 106.174 38.5174 106.117 38.443C106.061 38.3706 106.034 38.2624 106.035 38.1183C106.04 37.9747 106.026 37.8811 105.993 37.8377C105.964 37.8005 105.912 37.7758 105.837 37.7637C105.681 37.7347 105.467 37.7441 105.195 37.7918L103.823 38.8211C103.665 38.9399 103.56 39.0494 103.509 39.1496C103.473 39.2187 103.463 39.3014 103.478 39.3978C103.492 39.4942 103.549 39.6064 103.647 39.7346L103.535 39.819L102.421 38.3645L102.533 38.2801C102.644 38.4248 102.749 38.5152 102.849 38.5511C102.922 38.5778 103.003 38.5741 103.091 38.54C103.135 38.5238 103.24 38.4532 103.406 38.3281L104.515 37.4958C104.849 37.2457 105.041 37.0899 105.092 37.0286C105.147 36.9677 105.175 36.9077 105.176 36.8486C105.178 36.7916 105.159 36.7362 105.118 36.6825C105.069 36.6184 104.998 36.5577 104.905 36.5005L104.993 36.3851L106.001 36.9816L106.101 37.1118Z" fill="black"/>
<path d="M112.518 43.796C112.566 43.8942 112.572 43.9941 112.535 44.0957C112.501 44.1986 112.435 44.2737 112.336 44.3211C112.238 44.3684 112.136 44.374 112.031 44.3377C111.928 44.3037 111.852 44.2376 111.803 44.1394C111.755 44.0412 111.749 43.9401 111.785 43.8361C111.821 43.7322 111.889 43.6565 111.987 43.6091C112.086 43.5617 112.186 43.5556 112.287 43.5907C112.392 43.627 112.469 43.6954 112.518 43.796ZM110.974 44.8975L108.383 46.1427C108.181 46.2398 108.053 46.3186 107.999 46.3794C107.948 46.4414 107.92 46.5083 107.915 46.5802C107.91 46.6545 107.946 46.7676 108.02 46.9196L107.893 46.9805L107.128 45.4198L107.255 45.3589C107.332 45.5155 107.398 45.6134 107.455 45.6525C107.512 45.6916 107.583 45.7095 107.669 45.706C107.755 45.7049 107.898 45.6564 108.098 45.5606L109.34 44.9633C109.69 44.7952 109.912 44.6759 110.005 44.6052C110.072 44.5527 110.111 44.5022 110.122 44.4536C110.135 44.4039 110.127 44.3486 110.097 44.2878C110.065 44.2223 110.008 44.1513 109.927 44.0747L110.03 43.9647L110.899 44.7432L110.974 44.8975Z" fill="black"/>
<path d="M114.408 54.3929L113.225 54.6833L113.194 54.5583C113.541 54.3711 113.763 54.1852 113.859 54.0008C113.956 53.8188 113.975 53.6117 113.917 53.3793C113.873 53.2024 113.79 53.0712 113.67 52.9855C113.549 52.8998 113.432 52.871 113.318 52.8989C113.176 52.9336 113.065 53.0038 112.984 53.1095C112.9 53.2132 112.83 53.3994 112.773 53.6679L112.642 54.2872C112.52 54.8615 112.255 55.1988 111.845 55.2994C111.529 55.3769 111.243 55.3196 110.988 55.1274C110.737 54.9371 110.574 54.6941 110.5 54.3986C110.447 54.1864 110.424 53.9345 110.432 53.6431C110.436 53.5535 110.432 53.4822 110.418 53.4292C110.404 53.3711 110.359 53.3337 110.286 53.3169L110.254 53.1919L111.495 52.8876L111.526 53.0126C111.19 53.1702 110.957 53.3708 110.827 53.6144C110.697 53.8581 110.664 54.1037 110.726 54.3512C110.769 54.5255 110.855 54.6546 110.984 54.7384C111.115 54.8241 111.253 54.8493 111.397 54.8139C111.572 54.7711 111.703 54.6732 111.791 54.5203C111.879 54.3699 111.969 54.0892 112.059 53.6782C112.15 53.2672 112.254 52.9869 112.372 52.8372C112.488 52.6882 112.656 52.5867 112.876 52.5327C113.161 52.4626 113.425 52.5012 113.666 52.6486C113.907 52.7985 114.067 53.0288 114.145 53.3395C114.179 53.4759 114.191 53.6485 114.182 53.8573C114.176 53.9955 114.179 54.086 114.189 54.1289C114.2 54.1694 114.216 54.1988 114.24 54.2172C114.263 54.2356 114.309 54.2525 114.377 54.2679L114.408 54.3929Z" fill="black"/>
<path d="M114.159 62.7299C113.628 62.7387 113.214 62.8765 112.918 63.1433C112.621 63.4101 112.477 63.7192 112.485 64.0707C112.49 64.305 112.558 64.5067 112.69 64.6758C112.823 64.8475 113.048 64.9886 113.363 65.099L113.288 65.2218C112.93 65.1747 112.601 65.0229 112.301 64.7662C112.003 64.5095 111.85 64.1833 111.842 63.7875C111.832 63.3579 111.991 62.986 112.318 62.6716C112.647 62.3598 113.094 62.1979 113.659 62.1858C114.271 62.1727 114.751 62.3187 115.098 62.6238C115.449 62.9315 115.629 63.3223 115.64 63.7961C115.649 64.1971 115.523 64.5293 115.263 64.7927C115.006 65.0561 114.656 65.1925 114.213 65.202L114.159 62.7299ZM114.386 62.7251L114.422 64.3809C114.651 64.363 114.811 64.3322 114.904 64.2885C115.049 64.2203 115.161 64.1202 115.242 63.9883C115.322 63.8589 115.361 63.7239 115.358 63.5834C115.353 63.3673 115.264 63.1751 115.091 63.0069C114.921 62.8412 114.686 62.7473 114.386 62.7251Z" fill="black"/>
<path d="M114.636 74.4484L113.441 74.209L113.467 74.0827C113.862 74.061 114.143 73.9871 114.309 73.8611C114.475 73.7377 114.582 73.5586 114.63 73.3239C114.667 73.1453 114.649 72.9917 114.577 72.8631C114.505 72.7344 114.412 72.6586 114.297 72.6356C114.154 72.6069 114.023 72.6232 113.904 72.6844C113.783 72.7425 113.639 72.881 113.472 73.0998L113.086 73.6041C112.727 74.0714 112.341 74.2636 111.928 74.1807C111.608 74.1168 111.375 73.9439 111.228 73.6621C111.083 73.3834 111.041 73.0948 111.102 72.7963C111.146 72.582 111.234 72.3447 111.367 72.0845C111.41 72.0054 111.437 71.9391 111.448 71.8855C111.46 71.8269 111.436 71.7743 111.376 71.7278L111.402 71.6015L112.655 71.8524L112.629 71.9787C112.257 71.9786 111.96 72.0611 111.737 72.2263C111.515 72.3916 111.378 72.5992 111.327 72.8492C111.291 73.0253 111.312 73.1784 111.392 73.3086C111.474 73.4418 111.588 73.523 111.733 73.5521C111.909 73.5874 112.07 73.5546 112.216 73.4536C112.361 73.3552 112.563 73.1394 112.823 72.8063C113.082 72.4732 113.298 72.2641 113.469 72.1789C113.638 72.0933 113.834 72.0727 114.056 72.1172C114.344 72.175 114.566 72.3216 114.72 72.5569C114.873 72.7948 114.917 73.0707 114.853 73.3845C114.825 73.5223 114.762 73.6835 114.663 73.8682C114.598 73.9906 114.561 74.0736 114.552 74.1169C114.544 74.1578 114.546 74.1914 114.559 74.218C114.572 74.2445 114.607 74.2792 114.662 74.3221L114.636 74.4484Z" fill="black"/>
<path d="M61.6604 118V117.92L61.8444 117.848C61.935 117.811 61.9964 117.763 62.0284 117.704C62.0657 117.64 62.0844 117.555 62.0844 117.448V113.272C62.0844 113.165 62.0684 113.083 62.0364 113.024C62.0097 112.96 61.9457 112.909 61.8444 112.872L61.6604 112.8V112.72H65.4924L65.5404 113.952H65.4604L65.1164 113.2C65.0684 113.104 65.0177 113.027 64.9644 112.968C64.911 112.909 64.831 112.88 64.7244 112.88H63.2844V115.192H64.1404C64.247 115.192 64.327 115.165 64.3804 115.112C64.439 115.053 64.4897 114.976 64.5324 114.88L64.6924 114.56H64.7724V116H64.6924L64.5324 115.664C64.4844 115.568 64.4337 115.493 64.3804 115.44C64.327 115.381 64.247 115.352 64.1404 115.352H63.2844V117.84H64.9004C65.007 117.84 65.0897 117.813 65.1484 117.76C65.207 117.701 65.255 117.621 65.2924 117.52L65.6204 116.768H65.7004L65.6524 118H61.6604ZM67.4659 118.12C67.2045 118.12 66.9699 118.088 66.7619 118.024C66.5539 117.965 66.3619 117.891 66.1859 117.8L66.1939 116.848H66.2739L66.5459 117.328C66.6632 117.541 66.7912 117.701 66.9299 117.808C67.0739 117.909 67.2552 117.96 67.4739 117.96C67.7299 117.96 67.9352 117.904 68.0899 117.792C68.2499 117.675 68.3299 117.52 68.3299 117.328C68.3299 117.152 68.2739 117.008 68.1619 116.896C68.0499 116.784 67.8419 116.683 67.5379 116.592L67.2019 116.488C66.8765 116.392 66.6205 116.243 66.4339 116.04C66.2472 115.837 66.1539 115.589 66.1539 115.296C66.1539 114.944 66.2925 114.645 66.5699 114.4C66.8472 114.155 67.2445 114.032 67.7619 114.032C67.9699 114.032 68.1645 114.056 68.3459 114.104C68.5325 114.147 68.7112 114.213 68.8819 114.304L68.8339 115.168H68.7539L68.4739 114.672C68.3725 114.496 68.2712 114.373 68.1699 114.304C68.0739 114.229 67.9272 114.192 67.7299 114.192C67.5485 114.192 67.3779 114.243 67.2179 114.344C67.0579 114.445 66.9779 114.589 66.9779 114.776C66.9779 114.957 67.0445 115.101 67.1779 115.208C67.3165 115.315 67.5192 115.413 67.7859 115.504L68.1459 115.608C68.5299 115.725 68.8045 115.888 68.9699 116.096C69.1352 116.299 69.2179 116.544 69.2179 116.832C69.2179 117.221 69.0632 117.533 68.7539 117.768C68.4499 118.003 68.0205 118.12 67.4659 118.12ZM71.0863 118.12C70.7449 118.12 70.4783 118.035 70.2863 117.864C70.0996 117.693 70.0063 117.421 70.0063 117.048V114.312H69.4543V114.232L69.6463 114.2C69.8116 114.163 69.9529 114.109 70.0703 114.04C70.1929 113.971 70.3129 113.877 70.4303 113.76L71.0863 113.032H71.1663L71.1423 114.152H72.0383V114.312H71.1343V117.192C71.1343 117.379 71.1743 117.52 71.2543 117.616C71.3396 117.712 71.4463 117.76 71.5743 117.76C71.6863 117.76 71.7849 117.733 71.8703 117.68C71.9556 117.621 72.0409 117.544 72.1263 117.448L72.2063 117.528C72.0996 117.709 71.9529 117.853 71.7663 117.96C71.5796 118.067 71.3529 118.12 71.0863 118.12ZM74.1294 118.12C73.8148 118.12 73.5321 118.051 73.2814 117.912C73.0308 117.768 72.8308 117.549 72.6814 117.256C72.5374 116.957 72.4654 116.576 72.4654 116.112C72.4654 115.643 72.5481 115.256 72.7134 114.952C72.8788 114.643 73.0974 114.413 73.3694 114.264C73.6414 114.109 73.9374 114.032 74.2574 114.032C74.4441 114.032 74.6228 114.051 74.7934 114.088C74.9641 114.125 75.1161 114.181 75.2494 114.256V113.216C75.2494 113.104 75.2308 113.021 75.1934 112.968C75.1614 112.915 75.0894 112.877 74.9774 112.856L74.8254 112.824V112.744L76.2814 112.392L76.3694 112.464L76.3374 113.584V117.496C76.3374 117.603 76.3561 117.691 76.3934 117.76C76.4308 117.824 76.5001 117.869 76.6014 117.896L76.6734 117.92V118L75.3054 118.088L75.2334 117.8C75.0894 117.896 74.9241 117.973 74.7374 118.032C74.5561 118.091 74.3534 118.12 74.1294 118.12ZM74.5934 117.824C74.8174 117.824 75.0228 117.757 75.2094 117.624V114.448C75.0121 114.32 74.8094 114.256 74.6014 114.256C74.3454 114.256 74.1268 114.405 73.9454 114.704C73.7641 114.997 73.6734 115.461 73.6734 116.096C73.6734 116.731 73.7588 117.179 73.9294 117.44C74.1001 117.696 74.3214 117.824 74.5934 117.824ZM78.0203 118.12C77.8283 118.12 77.6656 118.053 77.5323 117.92C77.399 117.787 77.3323 117.627 77.3323 117.44C77.3323 117.253 77.399 117.091 77.5323 116.952C77.6656 116.813 77.8283 116.744 78.0203 116.744C78.2123 116.744 78.375 116.813 78.5083 116.952C78.6416 117.091 78.7083 117.253 78.7083 117.44C78.7083 117.627 78.6416 117.787 78.5083 117.92C78.375 118.053 78.2123 118.12 78.0203 118.12ZM81.1849 118V117.92L81.4969 117.824C81.6996 117.755 81.8009 117.619 81.8009 117.416V113.544L81.1529 113.632V113.528C81.4676 113.464 81.7689 113.373 82.0569 113.256C82.3503 113.139 82.6249 113.003 82.8809 112.848L82.9849 112.92L82.9529 114.064V117.416C82.9529 117.624 83.0543 117.757 83.2569 117.816L83.5849 117.92V118H81.1849ZM87.7578 114.952C87.7578 115.491 87.6325 115.981 87.3818 116.424C87.1311 116.861 86.7631 117.229 86.2778 117.528C85.7978 117.827 85.2085 118.037 84.5098 118.16L84.4778 118.016C84.9525 117.915 85.3338 117.768 85.6218 117.576C85.9098 117.384 86.1258 117.141 86.2698 116.848C86.4191 116.555 86.5151 116.203 86.5578 115.792C86.4458 115.867 86.3071 115.928 86.1418 115.976C85.9765 116.019 85.7898 116.04 85.5818 116.04C85.2831 116.04 85.0138 115.981 84.7738 115.864C84.5391 115.741 84.3525 115.565 84.2138 115.336C84.0751 115.107 84.0058 114.829 84.0058 114.504C84.0058 114.157 84.0911 113.859 84.2618 113.608C84.4325 113.352 84.6565 113.155 84.9338 113.016C85.2165 112.877 85.5258 112.808 85.8618 112.808C86.4698 112.808 86.9365 113 87.2618 113.384C87.5925 113.763 87.7578 114.285 87.7578 114.952ZM85.1338 114.4C85.1338 114.885 85.2005 115.237 85.3338 115.456C85.4671 115.669 85.6858 115.776 85.9898 115.776C86.2138 115.776 86.4085 115.728 86.5738 115.632C86.5845 115.515 86.5925 115.397 86.5978 115.28C86.6031 115.157 86.6058 115.029 86.6058 114.896C86.6058 114.405 86.5818 114.021 86.5338 113.744C86.4858 113.461 86.4085 113.261 86.3018 113.144C86.1951 113.027 86.0511 112.968 85.8698 112.968C85.6245 112.968 85.4405 113.08 85.3178 113.304C85.1951 113.528 85.1338 113.893 85.1338 114.4ZM92.0156 114.952C92.0156 115.491 91.8903 115.981 91.6396 116.424C91.389 116.861 91.021 117.229 90.5356 117.528C90.0556 117.827 89.4663 118.037 88.7676 118.16L88.7356 118.016C89.2103 117.915 89.5916 117.768 89.8796 117.576C90.1676 117.384 90.3836 117.141 90.5276 116.848C90.677 116.555 90.773 116.203 90.8156 115.792C90.7036 115.867 90.565 115.928 90.3996 115.976C90.2343 116.019 90.0476 116.04 89.8396 116.04C89.541 116.04 89.2716 115.981 89.0316 115.864C88.797 115.741 88.6103 115.565 88.4716 115.336C88.333 115.107 88.2636 114.829 88.2636 114.504C88.2636 114.157 88.349 113.859 88.5196 113.608C88.6903 113.352 88.9143 113.155 89.1916 113.016C89.4743 112.877 89.7836 112.808 90.1196 112.808C90.7276 112.808 91.1943 113 91.5196 113.384C91.8503 113.763 92.0156 114.285 92.0156 114.952ZM89.3916 114.4C89.3916 114.885 89.4583 115.237 89.5916 115.456C89.725 115.669 89.9436 115.776 90.2476 115.776C90.4716 115.776 90.6663 115.728 90.8316 115.632C90.8423 115.515 90.8503 115.397 90.8556 115.28C90.861 115.157 90.8636 115.029 90.8636 114.896C90.8636 114.405 90.8396 114.021 90.7916 113.744C90.7436 113.461 90.6663 113.261 90.5596 113.144C90.453 113.027 90.309 112.968 90.1276 112.968C89.8823 112.968 89.6983 113.08 89.5756 113.304C89.453 113.528 89.3916 113.893 89.3916 114.4ZM94.4334 118.12C93.8628 118.12 93.4014 117.931 93.0494 117.552C92.7028 117.173 92.5294 116.64 92.5294 115.952C92.5294 115.541 92.6094 115.157 92.7694 114.8C92.9294 114.443 93.1561 114.123 93.4494 113.84C93.7481 113.557 94.1028 113.328 94.5134 113.152C94.9294 112.971 95.3908 112.856 95.8974 112.808L95.9214 112.928C95.2708 113.061 94.7748 113.307 94.4334 113.664C94.0974 114.021 93.8761 114.507 93.7694 115.12C94.0788 114.939 94.4254 114.848 94.8094 114.848C95.1348 114.848 95.4041 114.915 95.6174 115.048C95.8308 115.181 95.9908 115.363 96.0974 115.592C96.2094 115.816 96.2654 116.069 96.2654 116.352C96.2654 116.731 96.1748 117.053 95.9934 117.32C95.8174 117.581 95.5881 117.781 95.3054 117.92C95.0281 118.053 94.7374 118.12 94.4334 118.12ZM93.6974 116.12C93.6974 116.781 93.7534 117.253 93.8654 117.536C93.9828 117.819 94.1641 117.96 94.4094 117.96C94.6548 117.96 94.8334 117.845 94.9454 117.616C95.0628 117.381 95.1214 116.992 95.1214 116.448C95.1214 115.947 95.0628 115.597 94.9454 115.4C94.8281 115.203 94.6361 115.104 94.3694 115.104C94.1454 115.104 93.9374 115.16 93.7454 115.272C93.7134 115.528 93.6974 115.811 93.6974 116.12Z" fill="black"/>
<g clip-path="url(#clip0_123_122)">
<path d="M43.7626 119.375C43.1533 119.375 42.7203 119.091 42.4634 118.522C42.2066 117.953 42.2896 117.435 42.7126 116.969L48.1376 110.844V104.938H47.0001C46.8141 104.938 46.6583 104.874 46.5325 104.748C46.4067 104.621 46.3438 104.464 46.3438 104.277C46.3438 104.09 46.4067 103.935 46.5325 103.811C46.6583 103.687 46.8141 103.625 47.0001 103.625H54.0001C54.186 103.625 54.3418 103.688 54.4676 103.815C54.5934 103.941 54.6563 104.098 54.6563 104.285C54.6563 104.472 54.5934 104.628 54.4676 104.752C54.3418 104.876 54.186 104.938 54.0001 104.938H52.8626V110.844L58.2876 116.969C58.7105 117.435 58.7935 117.953 58.5367 118.522C58.2798 119.091 57.8468 119.375 57.2376 119.375H43.7626ZM43.5001 118.062H57.5001L51.5501 111.325V104.938H49.4501V111.325L43.5001 118.062Z" fill="black"/>
</g>
<defs>
<clipPath id="clip0_123_122">
<rect width="21" height="21" fill="white" transform="translate(40 98)"/>
</clipPath>
</defs>
</svg>
